<svg xmlns="http://www.w3.org/2000/svg" viewBox="0 0 226.06 75.04"><defs><style>.cls-1{isolation:isolate;}.cls-2{opacity:0.1;mix-blend-mode:screen;}.cls-3{fill:#0068e8;}.cls-4,.cls-5{fill:#4dffff;}.cls-5{font-size:11.48px;font-family:GHEAGrapalat-Bold, GHEA Grapalat;font-weight:700;letter-spacing:0.13em;}.cls-6{letter-spacing:0.05em;}.cls-7{letter-spacing:0.13em;}.cls-8{fill:#fff;}</style></defs><title>Asset 1</title><g class="cls-1"><g id="Layer_2" data-name="Layer 2"><g id="BACKGROUND_02" data-name="BACKGROUND 02"><g class="cls-2"><polygon class="cls-3" points="11.24 63.57 8 60.33 8 10.7 11.24 7.46 168.82 7.46 186.47 25.1 217.9 25.1 222.56 29.76 222.56 60.33 219.32 63.57 11.24 63.57"/><path class="cls-4" d="M219.42,63.82H11.14L7.75,60.43V10.6l3.39-3.39H168.93l17.64,17.64H218l4.81,4.81V60.43Zm-208.07-.5H219.21l3.1-3.1V29.87l-4.52-4.52H186.36L168.72,7.71H11.35L8.25,10.8V60.22Z"/></g><path class="cls-4" d="M43.06,63.54a28,28,0,1,1,28-28A28.06,28.06,0,0,1,43.06,63.54Zm0-55a27,27,0,1,0,27,27A27.06,27.06,0,0,0,43.06,8.49Z"/><path class="cls-4" d="M20.13,54.41a29.72,29.72,0,0,1-6.78-18.9h2a27.77,27.77,0,0,0,6.32,17.63Z"/><path class="cls-4" d="M43.06,66.16v-3A27.67,27.67,0,0,0,70.7,35.51h3A30.68,30.68,0,0,1,43.06,66.16Z"/><path class="cls-3" d="M43.06,60.52a25,25,0,1,1,25-25A25,25,0,0,1,43.06,60.52Zm0-49a24,24,0,1,0,24,24A24,24,0,0,0,43.06,11.5Z"/><path class="cls-3" d="M67.48,35.51h-3A21.45,21.45,0,0,0,43.06,14.09v-3A24.44,24.44,0,0,1,67.48,35.51Z"/><rect class="cls-4" x="42.56" y="4.46" width="1" height="3.53"/><rect class="cls-4" x="42.56" y="63.04" width="1" height="3.53"/><rect class="cls-4" x="10" y="35.01" width="13.53" height="1"/><rect class="cls-4" x="62.58" y="35.01" width="13.53" height="1"/><rect class="cls-4" x="75.61" y="32.2" width="1" height="6.62"/><rect class="cls-3" x="132.56" y="7.42" width="51.85" height="3"/><path class="cls-3" d="M203.23,69.18h-1l3-7.7h1Zm6.48-7.7h-1l-3,7.7h1Zm3.49,0h-1l-3,7.7h1Zm3.48,0h-1l-3,7.7h1Z"/><rect class="cls-3" x="68.58" width="54.91" height="8.92"/><path class="cls-4" d="M220.76,67.07H9.79L4.5,61.78V9.25L9.79,4H170.27L187.92,21.6h31.43l6.71,6.71V61.78Zm-210.55-1H220.35l4.71-4.71V28.73l-6.13-6.13H187.5L169.86,5H10.21L5.5,9.67V61.36Z"/><path class="cls-4" d="M2,34.46H0v-.7H2Zm0-2.7H0v-.7H2Zm0-2.7H0v-.7H2Zm0-2.7H0v-.7H2Zm0-2.7H0V23H2ZM2,21H0v-.7H2Zm0-2.7H0v-.7H2Zm0-2.7H0v-.7H2Zm0-2.7H0v-.7H2Zm0-2.7H0v-.7H2Z"/><path class="cls-3" d="M20.27,16.69,18,14.77a32.71,32.71,0,0,1,5.1-4.95A33.19,33.19,0,0,1,29,6.16l1.3,2.7a30,30,0,0,0-10,7.83Z"/><path class="cls-3" d="M16.77,75H15.53V69.22h1.24Zm2.39-5.82H17.93V75h1.23Zm2.4,0H20.33V75h1.23Zm2.39,0H22.72V75H24Zm2.4,0H25.12V75h1.23Zm2.4,0H27.51V75h1.24Zm2.39,0H29.91V75h1.23Zm2.4,0H32.3V75h1.24Zm2.39,0H34.7V75h1.23Zm2.4,0H37.1V75h1.23Zm2.4,0H39.49V75h1.24Zm2.39,0H41.89V75h1.23Zm2.4,0H44.28V75h1.24Zm2.39,0H46.68V75h1.23Zm2.4,0H49.08V75h1.23Zm2.4,0H51.47V75h1.24Zm2.39,0H53.87V75H55.1Zm2.4,0H56.26V75H57.5Zm2.39,0H58.66V75h1.23Zm2.4,0H61.06V75h1.23Zm2.39,0H63.45V75h1.23Zm2.4,0H65.85V75h1.23Zm2.4,0H68.24V75h1.24Zm2.39,0H70.64V75h1.23Zm2.4,0H73V75h1.23Zm2.39,0H75.43V75h1.23Zm2.4,0H77.83V75h1.23Zm2.4,0H80.22V75h1.24Zm2.39,0H82.62V75h1.23Zm2.4,0H85V75h1.24Zm2.39,0H87.41V75h1.23Zm2.4,0H89.81V75H91Zm2.4,0H92.2V75h1.24Zm2.39,0H94.6V75h1.23Zm2.4,0H97V75h1.24Zm2.39,0H99.39V75h1.23Zm2.4,0h-1.23V75H103Zm2.4,0h-1.24V75h1.24Zm2.39,0h-1.23V75h1.23Zm2.4,0H109V75h1.24Zm2.39,0h-1.23V75h1.23Z"/><rect class="cls-3" x="115.28" y="69.22" width="62.45" height="1"/><path class="cls-4" d="M43.39,58.94l0-1h.4l0,1Zm-1,0H42l0-1h.39Zm2.44,0-.07-1,.39,0,.09,1Zm-3.87,0-.4,0,.1-1,.4,0Zm5.29-.12-.13-1,.39-.06.15,1Zm-6.7,0-.41-.07.17-1,.38.06Zm8.12-.19-.2-1,.38-.08.21,1Zm-9.53-.07-.4-.09.23-1,.38.08ZM49,58.17l-.26-1,.38-.1.27,1Zm-12.31-.09L36.34,58l.29-1,.37.11Zm13.68-.32-.32-.94.37-.13.33.94Zm-15-.11L35,57.51l.34-.93.37.13Zm16.38-.38-.37-.92.37-.15.38.92ZM34,57.14,33.67,57l.39-.92.37.15Zm19-.44-.42-.9.35-.17.44.9Zm-20.32-.15-.36-.18.45-.89.35.18Zm21.6-.5-.48-.87.34-.2.49.87Zm-22.86-.16-.35-.21.51-.86L32,55Zm24.09-.57L55,54.48l.32-.21.55.83Zm-25.31-.18-.33-.22.56-.83.32.22Zm26.49-.62-.58-.81.31-.23.6.8Zm-27.66-.19-.32-.24.61-.8.31.24Zm28.8-.68-.64-.77.3-.25.65.76ZM28,53.45l-.32-.27.66-.75.3.25Zm31-.74L58.28,52l.29-.27.69.72Zm-32-.22-.29-.28.7-.71a3.45,3.45,0,0,0,.28.26ZM60,51.71,59.26,51l.27-.28.73.68Zm-34.07-.23-.28-.3.74-.67.27.29Zm35-.83L60.17,50l.26-.31.77.64ZM25,50.4l-.26-.32.78-.62.25.31Zm36.86-.87-.8-.6.23-.31.81.59Zm-37.74-.26-.24-.33.82-.57.23.31Zm38.56-.9-.84-.55.21-.33.85.53Zm-39.37-.28-.21-.34.85-.53.21.33Zm40.11-.94-.86-.5.19-.34.87.49Zm-40.84-.29-.19-.36.88-.47.19.35Zm41.51-1-.89-.44.17-.35.9.43Zm-42.16-.3-.17-.37.91-.42.16.36Zm42.76-1-.92-.39.14-.36.93.37Zm-43.34-.32-.15-.38.94-.36.14.36Zm43.85-1-.94-.33.12-.37,1,.31Zm-44.34-.33-.13-.39.95-.3.13.37Zm44.77-1-1-.27.1-.37,1,.25Zm-45.18-.34-.11-.39,1-.24.1.38Zm45.53-1-1-.21.08-.38,1,.19Zm-45.86-.34L20,39.77l1-.17.07.38Zm46.12-1.06-1-.16.06-.38,1,.13Zm-46.36-.35-.05-.41,1-.12.05.39ZM66.38,37.7l-1-.09,0-.39,1,.07ZM19.7,37.35l0-.41,1-.06,0,.39Zm46.77-1.08-1,0v-.39l1,0Zm-46.84-.35v-.41l1-.08v.47Zm45.84-1.05v-.39l1,0v.41Zm-44.82-.42-1-.05,0-.4,1,.06Zm44.75-.94,0-.39,1-.11,0,.41Zm-44.64-.43-1-.1,0-.41,1,.13Zm44.47-.93-.06-.39,1-.16.06.4Zm-44.29-.42-1-.17.07-.4,1,.19ZM65,30.81l-.09-.39,1-.22.09.4Zm-43.78-.42-1-.23.1-.39,1,.24Zm43.45-.91-.11-.38,1-.28.12.39Zm-43.09-.41-1-.29.12-.39.95.31Zm42.69-.9-.14-.37.94-.34.14.38ZM22,27.78l-.94-.35.14-.38.94.36Zm41.77-.89-.16-.36.92-.4.16.38Zm-41.26-.38-.92-.4.17-.37.91.41Zm40.69-.87L63,25.29l.89-.45.18.36Zm-40.11-.36-.89-.46.19-.36.88.47Zm39.47-.85-.19-.33.85-.52.21.36Zm-38.81-.35-.86-.51.21-.35.86.53Zm38.1-.82-.22-.32.83-.56.22.34Zm-37.36-.33-.83-.56.23-.34.82.58Zm36.57-.79-.23-.31.79-.61.25.33Zm-35.77-.32-.79-.61.25-.32.78.63Zm34.93-.75-.26-.3.76-.65.26.31Zm-34.07-.3-.75-.66.27-.31.74.68Zm33.15-.72L59,19.77l.71-.7.29.29Zm-32.21-.29-.72-.69.29-.3.7.72Zm31.24-.67L58,18.83l.67-.75.3.28Zm-30.25-.27-.68-.74.31-.27.66.75Zm29.22-.63c-.1-.08-.2-.17-.3-.24l.62-.79.32.26Zm-28.18-.25-.62-.78.32-.26.61.8Zm27.1-.59-.32-.22.58-.82.33.23Zm-26-.23-.58-.82.34-.23.56.83Zm24.87-.53-.33-.21.52-.85.35.21Zm-23.73-.22-.52-.85.35-.21.51.86Zm22.56-.48-.34-.19.47-.88.35.19Zm-21.37-.2-.47-.88.36-.19.46.89Zm20.15-.43-.35-.16.42-.91.37.17Zm-18.92-.17-.41-.91.37-.17.4.92Zm17.68-.38-.37-.14.36-.93.38.15ZM35,14.56l-.35-.94.38-.14.34.94Zm15.14-.32-.38-.12.31-.95.38.12Zm-13.84-.13-.3-1,.39-.11.28,1Zm12.53-.26-.39-.1.25-1,.39.1Zm-11.22-.11-.23-1,.39-.1.22,1Zm9.89-.21-.39-.07.18-1,.4.08ZM39,13.45l-.18-1,.4-.07.17,1Zm7.2-.15-.39-.05.12-1,.41.05Zm-5.85-.05-.12-1,.41,0,.1,1Zm4.49-.1-.39,0,.06-1,.41,0Zm-3.13,0-.05-1,.4,0,.05,1Zm1.76,0h-.39v-1h.4Z"/><text class="cls-5" transform="translate(80.1 22.96)">Զ<tspan class="cls-6" x="9.98" y="0">Ե</tspan><tspan class="cls-7" x="18.4" y="0">ՆՔԻ ԿՈԴԸ</tspan></text><path class="cls-8" d="M37.05,30.1A1.9,1.9,0,1,0,39,32,1.9,1.9,0,0,0,37.05,30.1ZM38.31,32a1.25,1.25,0,0,1-.18.63l-1.71-1.72a1.21,1.21,0,0,1,.63-.17A1.26,1.26,0,0,1,38.31,32Zm-2.52,0a1.32,1.32,0,0,1,.17-.63l1.72,1.71a1.24,1.24,0,0,1-.63.17A1.26,1.26,0,0,1,35.79,32Z"/><path class="cls-8" d="M59.37,30.91a1.09,1.09,0,0,0-1,.77H58v-1.1a.32.32,0,0,0-.32-.32H56.5v-.11a.32.32,0,0,0-.32-.32.32.32,0,0,0-.32.32v.11h-1v-.11a.32.32,0,0,0-.32-.32.32.32,0,0,0-.32.32v.11H53.09a.32.32,0,0,0-.32.32v.13H48.51a5.46,5.46,0,0,0-2.42-2,15,15,0,0,0-6.38-1.28h-.53v-.54H42a.33.33,0,0,0,.29-.18.32.32,0,0,0,0-.34l-1.31-1.71a.35.35,0,0,0-.26-.13H39.34a14.94,14.94,0,0,0-7,1.75.32.32,0,0,0-.16.36.31.31,0,0,0,.31.25h2.76V28a11.86,11.86,0,0,0-1.93.71A5.55,5.55,0,0,0,31,30.6H29.3a.32.32,0,0,0-.32.32v2.16a.32.32,0,0,0,.32.32H31a3.81,3.81,0,0,0,.61.74l-.74,1.66h-.22a2,2,0,0,0-1.36.51l-.05,0a.33.33,0,0,0-.43.16.34.34,0,0,0,.07.36h0l-.41.7-.11,0a.32.32,0,0,0-.42.16.31.31,0,0,0,.15.42l.05,0-.41.69-.13-.06a.33.33,0,0,0-.43.16.32.32,0,0,0,.16.42l.08,0L27,40l-.16-.07a.32.32,0,0,0-.43.15.33.33,0,0,0,.16.43l.11.05-.26.43c-.05.09-.09.18-.13.27l-.17-.08a.33.33,0,0,0-.43.16.32.32,0,0,0,.16.42l.3.14a1.86,1.86,0,0,0,.09.74,2.08,2.08,0,0,0,1.09,1.25l.81.37a2,2,0,0,0,.86.19,2,2,0,0,0,1.42-.58l.3.14a.35.35,0,0,0,.14,0,.33.33,0,0,0,.29-.19.32.32,0,0,0-.16-.42l-.17-.08a2,2,0,0,0,.11-.26l.18-.49.12,0a.28.28,0,0,0,.13,0,.32.32,0,0,0,.29-.18.33.33,0,0,0-.16-.43L31.3,42l.27-.76.09,0a.31.31,0,0,0,.13,0,.31.31,0,0,0,.29-.19.31.31,0,0,0-.15-.42l-.14-.07.27-.75.06,0a.32.32,0,0,0,.42-.15.32.32,0,0,0-.15-.43l-.11,0,.27-.77h.05a.32.32,0,0,0,.29-.18.33.33,0,0,0-.16-.43l-.06,0a2.09,2.09,0,0,0-.24-1l.75-1.64.14.07.37.17-.14.3a2.08,2.08,0,0,0-.08,1.64,2.11,2.11,0,0,0,1.1,1.21,2.16,2.16,0,0,0,2.86-1l.51-1.09a17.19,17.19,0,0,0,1.77.09l.82,0a.33.33,0,0,0,.31-.32v-.5c.38,0,.75,0,1.12-.1v.41a.32.32,0,0,0,.32.32.33.33,0,0,0,.32-.32v-.5c.37-.07.73-.15,1.07-.24v.33A.32.32,0,0,0,44,36a.32.32,0,0,0,.32-.32v-.52a9.54,9.54,0,0,0,1.07-.42v.17a.32.32,0,0,0,.64,0v-.52a4.34,4.34,0,0,0,1.22-1.08h5.53v.13a.32.32,0,0,0,.32.32h1.17v.11a.32.32,0,0,0,.32.32.33.33,0,0,0,.32-.32v-.11h1v.11a.32.32,0,0,0,.32.32.33.33,0,0,0,.32-.32v-.11h1.14a.32.32,0,0,0,.32-.32v-1.1h.37a1.09,1.09,0,1,0,1-1.41ZM33.92,26.23a14.17,14.17,0,0,1,5.42-1.08h1.13l.83,1.08Zm2,.64h2.65v.56a17.08,17.08,0,0,0-2.65.38Zm-6.27,5.89V31.24h1.06a2.42,2.42,0,0,0-.12.76,2.46,2.46,0,0,0,.12.76ZM29,43.81a1.37,1.37,0,0,1-.59-.13l-.81-.38a1.38,1.38,0,0,1-.75-.85,1.29,1.29,0,0,1-.06-.25l3,1.37A1.43,1.43,0,0,1,29,43.81Zm1.33-.93-.09.2-3.37-1.55a1.13,1.13,0,0,1,.11-.22l.28-.48,3.27,1.5Zm.41-1.15-3.15-1.46.4-.69L31,41Zm.49-1.37L28.29,39l.4-.69,2.79,1.28ZM29,37.77l.41-.69L32,38.24s-.27.76-.27.76Zm.91-1.17a1.47,1.47,0,0,1,.69-.17,1.37,1.37,0,0,1,.59.13,1.4,1.4,0,0,1,.79,1ZM32,36.31a2.69,2.69,0,0,0-.27-.2,1.65,1.65,0,0,0-.26-.14l.63-1.4c.16.13.34.24.52.36Zm4.86,1a1.51,1.51,0,0,1-2,.72,1.5,1.5,0,0,1-.73-2l.16-.33.29.1a2.47,2.47,0,0,0,.51,1.86.32.32,0,0,0,.25.12.31.31,0,0,0,.2-.07.32.32,0,0,0,0-.45A1.81,1.81,0,0,1,35.2,36a15.76,15.76,0,0,0,2.07.43ZM40.2,32V36h-.49a14.52,14.52,0,0,1-6.11-1.22C32.05,34,31.2,33,31.2,32s.85-2,2.4-2.74A14.29,14.29,0,0,1,39.66,28v.65A.32.32,0,0,0,40,29a.33.33,0,0,0,.32-.32v-.64l.71,0v.61a.32.32,0,1,0,.64,0v-.55l.71.1v.45a.32.32,0,0,0,.64,0v-.34a11.59,11.59,0,0,1,2.81.91c1.4.68,2.23,1.53,2.38,2.44H40.52A.32.32,0,0,0,40.2,32Zm.64,3.1V32.34H42V35C41.59,35.06,41.22,35.1,40.84,35.12Zm1.76-.21V32.34h1.07v2.32C43.33,34.76,43,34.84,42.6,34.91Zm1.71-.45V32.34h1.07V34A8.19,8.19,0,0,1,44.31,34.46ZM46,33.6V32.34h1A2.42,2.42,0,0,1,46,33.6Zm1.56-1c0-.11.06-.21.08-.31h.88a.32.32,0,0,0,.32-.32s0-.18,0-.26a2.7,2.7,0,0,0-.08-.41h4v1.3Zm5.83.45V30.9h.85v2.2Zm1.49,0V30.9h1v2.2Zm2.42,0H56.5V30.9h.82Zm2-.66a.45.45,0,1,1,.45-.44A.45.45,0,0,1,59.37,32.44Z"/></g></g></g></svg>