<svg xmlns="http://www.w3.org/2000/svg" viewBox="0 0 225.69 70.4"><defs><style>.cls-1{isolation:isolate;}.cls-2{opacity:0.1;mix-blend-mode:screen;}.cls-3{fill:#0068e8;}.cls-4{fill:#4dffff;}.cls-5{font-size:9.63px;fill:#0be9f0;font-family:GHEAGrapalat-Bold, GHEA Grapalat;font-weight:700;}.cls-6{letter-spacing:-0.06em;}.cls-7{fill:#121214;}.cls-8{fill:#303033;}.cls-9{fill:#45454a;}.cls-10{fill:#939598;}.cls-11{fill:#535359;}.cls-12{fill:#ba6000;}.cls-13{fill:#ff8400;}.cls-14{fill:#ab183a;}.cls-15{fill:#ff2456;}.cls-16{fill:#ff9d26;}</style></defs><title>Asset 3</title><g class="cls-1"><g id="Layer_2" data-name="Layer 2"><g id="BACKGROUND_02" data-name="BACKGROUND 02"><g class="cls-2"><polygon class="cls-3" points="10.87 62.02 7.63 58.78 7.63 9.15 10.87 5.91 168.45 5.91 186.09 23.55 217.52 23.55 222.19 28.21 222.19 58.78 218.94 62.02 10.87 62.02"/><path class="cls-4" d="M219.05,62.27H10.77L7.38,58.88V9.05l3.39-3.39H168.55L186.2,23.3h31.43l4.81,4.81V58.88ZM11,61.77H218.84l3.1-3.1V28.32l-4.52-4.52H186L168.35,6.16H11L7.88,9.25V58.67Z"/></g><rect class="cls-3" x="17.69" y="68.67" width="54.91" height="1.73"/><path class="cls-4" d="M42.68,62.49l0-2h.67l0,2Zm-2.11-.08-.72-.06.19-2,.67,0Zm4.86-.06-.19-2,.67-.07.23,2Zm-7.64-.28-.71-.14.39-2,.66.13ZM48.19,62l-.38-2,.66-.14.44,1.95Zm-13.13-.49-.69-.21L35,59.34l.65.19Zm15.85-.18-.58-1.91.65-.21.62,1.9Zm-18.5-.7-.67-.27.76-1.85.63.25Zm21.14-.24-.76-1.85.62-.26.81,1.83Zm-23.69-.9c-.22-.1-.44-.22-.65-.33l.95-1.76.59.31Zm26.22-.29-.94-1.77.59-.32,1,1.74ZM27.43,58.06c-.21-.12-.41-.26-.61-.39L27.93,56l.57.37Zm31.05-.35-1.11-1.66.56-.38,1.15,1.63C58.88,57.44,58.69,57.58,58.48,57.71ZM25.14,56.46c-.19-.15-.38-.3-.56-.46l1.27-1.54.52.42Zm35.59-.41L59.47,54.5l.51-.43,1.31,1.51ZM23,54.63l-.51-.51,1.41-1.41.48.47Zm39.79-.46L61.4,52.76l.47-.49,1.44,1.39ZM21.1,52.61c-.16-.19-.32-.37-.47-.56l1.55-1.27c.14.18.28.35.43.52Zm43.59-.5-1.54-1.28.42-.52,1.57,1.23C65,51.73,64.84,51.92,64.69,52.11ZM19.37,50.4,19,49.8l1.66-1.11.39.56Zm47-.53L64.7,48.75l.37-.56,1.69,1.07C66.63,49.47,66.5,49.67,66.36,49.87ZM17.87,48l-.35-.63,1.76-.95.33.59Zm49.94-.56-1.76-.95.31-.6,1.78.9Zm-51.2-1.94c-.1-.22-.2-.44-.29-.67l1.85-.76.27.62ZM69,45l-1.85-.78c.09-.2.17-.41.26-.62l1.86.73Zm-53.41-2c-.08-.23-.15-.46-.22-.7l1.91-.57.21.64ZM70,42.33l-1.91-.59.18-.64,1.93.53C70.1,41.86,70,42.1,70,42.33Zm-55.11-2.1-.15-.71,2-.39c.05.23.1.45.14.67Zm55.79-.61-2-.4c0-.22.09-.44.13-.66l2,.34C70.74,39.14,70.69,39.38,70.64,39.62ZM14.38,37.48c0-.24-.06-.48-.08-.72l2-.2c0,.23,0,.45.07.67Zm56.68-.63-2-.2.06-.67,2,.15C71.11,36.37,71.08,36.61,71.06,36.85ZM14.17,34.69c0-.24,0-.48,0-.73v-.19h2V34c0,.23,0,.46,0,.68Zm55-.63v-.68l2,0V34Zm-53-2.2-2-.16c0-.24,0-.48.07-.72l2,.2Zm52.85-.4c0-.23,0-.45-.07-.68l2-.23c0,.24.06.48.08.72ZM16.57,29.28l-2-.35c.05-.24.09-.48.14-.72l2,.41C16.66,28.84,16.61,29.06,16.57,29.28Zm52.15-.4c0-.22-.09-.44-.14-.66l2-.43c.06.23.1.47.15.71ZM17.16,26.74l-1.93-.54c.07-.23.13-.46.21-.69l1.91.59C17.28,26.31,17.22,26.53,17.16,26.74Zm50.94-.38-.2-.65,1.9-.62.21.69ZM18,24.28l-1.86-.73.27-.67,1.85.78C18.15,23.86,18.07,24.07,18,24.28Zm49.25-.38L67,23.28l1.84-.8.28.66Zm-48.18-2L17.27,21l.34-.64,1.75,1Zm47.07-.36c-.1-.2-.21-.4-.32-.59l1.74-1c.12.21.24.42.35.64ZM20.34,19.66l-1.68-1.08.4-.6,1.65,1.12Zm44.45-.35c-.12-.19-.25-.37-.38-.56l1.64-1.15.41.6ZM21.85,17.55l-1.57-1.24c.15-.19.3-.38.46-.56L22.28,17C22.13,17.19,22,17.37,21.85,17.55Zm41.4-.33c-.14-.18-.29-.35-.44-.52l1.52-1.3.47.55ZM23.56,15.59,22.12,14.2l.51-.52L24,15.11Zm38-.31L61,14.81l1.38-1.44c.18.16.35.33.52.51ZM25.45,13.8l-1.3-1.52.56-.46L26,13.37Zm34.14-.27-.53-.43,1.24-1.57c.19.15.38.3.56.46ZM27.51,12.21l-1.15-1.64.6-.41,1.11,1.67Zm30-.24-.57-.37L58,9.91l.61.4Zm-27.8-1.15-1-1.74.64-.35.94,1.77Zm25.58-.2-.6-.31.91-1.78.64.33ZM32,9.66l-.8-1.83.67-.28.76,1.85Zm20.9-.16-.62-.25.73-1.86c.23.08.45.17.67.27ZM34.48,8.74l-.62-1.91.69-.21.57,1.92Zm16-.12-.66-.2L50.4,6.5l.69.2ZM37,8.06l-.44-2L37.27,6l.37,2ZM48,8l-.66-.12.34-2,.71.13Zm-8.44-.34-.24-2L40,5.56l.18,2Zm5.87,0-.68-.06.16-2,.72.06Zm-3.28-.13,0-2h.72v2h-.68Z"/><path class="cls-4" d="M45.35,63.55l-.18-2a27.81,27.81,0,0,0,17-7.88l1.4,1.42A29.75,29.75,0,0,1,45.35,63.55Z"/><path class="cls-4" d="M70.22,31.48a27.65,27.65,0,0,0-30-25l-.27-3A30.65,30.65,0,0,1,73.21,31.21Z"/><path class="cls-3" d="M42.66,59A25,25,0,0,1,40.44,9.06a25,25,0,0,1,4.49,49.81h0C44.17,58.94,43.41,59,42.66,59Zm.07-49c-.73,0-1.47,0-2.2.1a24,24,0,0,0,4.31,47.83h0A24,24,0,0,0,42.73,10Z"/><path class="cls-3" d="M67.11,34h-3A21.45,21.45,0,0,0,42.68,12.54v-3A24.45,24.45,0,0,1,67.11,34Z"/><rect class="cls-4" x="42.18" y="2.91" width="1" height="3.53"/><rect class="cls-4" x="42.18" y="61.49" width="1" height="3.53"/><rect class="cls-4" x="9.63" y="33.46" width="13.53" height="1"/><rect class="cls-4" x="62.2" y="33.46" width="13.53" height="1"/><rect class="cls-4" x="75.24" y="30.65" width="1" height="6.62"/><rect class="cls-3" x="132.19" y="5.87" width="51.85" height="3"/><path class="cls-3" d="M0,13.57v-1l7.7,3v1Zm7.7,6.48V19L0,16v1Zm0,3.49v-1l-7.7-3v1ZM7.7,27V26L0,23v1Z"/><path class="cls-4" d="M220.39,65.52H9.42L4.13,60.23V7.7L9.42,2.41H169.9l17.64,17.64H219l6.72,6.72V60.23Zm-210.56-1H220l4.71-4.71V27.18l-6.13-6.13H187.13L169.48,3.41H9.83L5.13,8.12V59.81Z"/><path class="cls-4" d="M222.46,53.06h-2v-.7h2Zm0-2.7h-2v-.7h2Zm0-2.7h-2V47h2Zm0-2.7h-2v-.7h2Zm0-2.7h-2v-.7h2Zm0-2.7h-2v-.7h2Zm0-2.7h-2v-.7h2Zm0-2.7h-2v-.7h2Zm0-2.7h-2v-.7h2Zm0-2.7h-2v-.7h2Z"/><path class="cls-3" d="M24.28,60.82a32.76,32.76,0,0,1-9.56-10.18l2.57-1.54a29.54,29.54,0,0,0,3.79,5A29.84,29.84,0,0,0,26,58.35Z"/><path class="cls-3" d="M75.68,5.82H74.44V0h1.24ZM78.07,0H76.84V5.82h1.23Zm2.4,0H79.23V5.82h1.24Zm2.39,0H81.63V5.82h1.23Zm2.4,0H84V5.82h1.23Zm2.39,0H86.42V5.82h1.23Zm2.4,0H88.82V5.82h1.23Zm2.4,0H91.21V5.82h1.24Zm2.39,0H93.61V5.82h1.23Zm2.4,0H96V5.82h1.23Zm2.39,0H98.4V5.82h1.23ZM102,0H100.8V5.82H102Zm2.4,0h-1.24V5.82h1.24Zm2.39,0h-1.23V5.82h1.23Zm2.4,0H108V5.82h1.24Zm2.39,0h-1.23V5.82h1.23ZM114,0h-1.23V5.82H114Zm2.4,0h-1.24V5.82h1.24Zm2.39,0h-1.23V5.82h1.23Zm2.4,0H120V5.82h1.24Zm2.39,0h-1.23V5.82h1.23ZM126,0h-1.23V5.82H126Zm2.4,0h-1.24V5.82h1.24Z"/><rect class="cls-3" x="59.91" y="67.67" width="62.45" height="1"/><path class="cls-4" d="M43,57.39l0-1h.39l0,1Zm-1,0h-.4l0-1H42Zm2.45-.05-.07-1,.39,0,.09,1Zm-3.87,0-.4,0,.1-1,.39,0Zm5.29-.12-.13-1,.39-.06.15,1Zm-6.71,0-.4-.07.17-1,.38.06Zm8.12-.19-.19-1,.38-.08.21,1Zm-9.52-.07-.4-.09.23-1,.38.08Zm10.91-.25-.25-1,.38-.11.26,1Zm-12.3-.09L36,56.42l.29-1,.37.11ZM50,56.22l-.31-.95.37-.13.33,1ZM35,56.1,34.61,56,35,55l.37.13Zm16.38-.37L51,54.8l.36-.15.39.92Zm-17.72-.14-.37-.15.4-.92.36.15Zm19-.44-.43-.9.36-.17.44.9ZM32.37,55,32,54.82l.45-.89.35.18ZM54,54.5l-.49-.87.34-.2.5.87Zm-22.86-.16-.35-.2.51-.87.34.2Zm24.09-.57-.54-.84.33-.21.55.83ZM29.89,53.6l-.34-.23.56-.83.33.22ZM56.38,53l-.58-.81.31-.23.6.8Zm-27.66-.19-.32-.24.61-.8.31.24Zm28.79-.68-.63-.77.3-.25.65.76ZM27.6,51.9l-.31-.27.66-.75.29.25Zm31-.74-.68-.73.28-.27.7.72Zm-32.05-.22a3.83,3.83,0,0,1-.29-.28L27,50l.28.27Zm33.07-.78-.72-.69.26-.28.74.68Zm-34.08-.23-.27-.3L26,49l.27.29Zm35-.83-.77-.64.25-.31.77.64Zm-36-.25-.25-.31.78-.63.24.31ZM61.45,48l-.8-.6.23-.32.82.59Zm-37.73-.27-.24-.33.82-.57.23.32Zm38.55-.9-.83-.55.21-.33.84.53Zm-39.36-.28-.21-.34.85-.53.21.33ZM63,45.6l-.87-.49.19-.35.88.49Zm-40.84-.29L22,45l.88-.46.19.34Zm41.51-1-.89-.45.17-.35.9.43ZM21.52,44l-.17-.37.91-.41.17.35Zm42.76-1-.92-.39.15-.36.93.38ZM21,42.73l-.15-.38.93-.36.15.36Zm43.85-1-.95-.33L64,41l1,.31Zm-44.34-.33L20.33,41l1-.3.12.37Zm44.77-1-1-.28.1-.37,1,.25ZM20,40l-.1-.4,1-.24.1.38ZM65.58,39l-1-.21.08-.38,1,.19Zm-45.86-.34-.08-.4,1-.18.08.38Zm46.12-1.06-1-.16L64.9,37l1,.13Zm-46.36-.35-.05-.41,1-.12,0,.39ZM66,36.15l-1-.09,0-.39,1,.07ZM19.32,35.8l0-.41,1-.06,0,.39ZM66.1,34.72l-1,0V34.3l1,0Zm-46.84-.35V34l1-.08v.47Zm45.84-1v-.39l1,0v.41ZM20.28,32.9l-1,0,0-.4,1,.06ZM65,32l0-.39,1-.11,0,.41Zm-44.64-.43-1-.1.05-.41,1,.13Zm44.48-.93-.06-.38,1-.17.06.4Zm-44.29-.42-1-.17.07-.4,1,.19Zm44.05-.92-.09-.39,1-.22.08.4Zm-43.78-.42-1-.22.09-.4,1,.24Zm43.45-.91-.11-.38,1-.28.11.39Zm-43.1-.41-1-.28.12-.4,1,.31Zm42.69-.89-.13-.37.94-.35.14.39Zm-42.26-.4-.93-.35.14-.38.93.36Zm41.77-.89L63.24,25l.92-.4.16.38ZM22.13,25l-.91-.4.17-.37.9.41Zm40.7-.86-.18-.36.89-.45.19.36Zm-40.11-.37-.89-.46.19-.36.88.47Zm39.47-.85-.2-.33.86-.52.21.36Zm-38.81-.35L22.52,22l.21-.35.85.53Zm38.1-.81-.22-.33.82-.56.23.34Zm-37.36-.34-.83-.56.23-.34.81.58Zm36.57-.79-.23-.31.79-.61.25.33Zm-35.78-.32-.79-.61.25-.32.79.63Zm34.93-.75-.25-.3.75-.65.27.31Zm-34.06-.3L25,18.56l.27-.3.74.67Zm33.15-.72-.27-.28.71-.7.28.29Zm-32.22-.29L26,17.52l.29-.3.7.72ZM58,17.54l-.29-.26.66-.75.31.28ZM27.7,17.27,27,16.53l.31-.27L28,17Zm29.23-.63-.3-.24.61-.79.33.26Zm-28.18-.25-.63-.78.33-.26.6.8Zm27.1-.59-.32-.22.57-.82.34.23Zm-26-.23-.57-.82.34-.23.55.83ZM54.72,15l-.33-.21.52-.85.35.21ZM31,14.82,30.46,14l.36-.21.5.86Zm22.56-.48-.35-.19.47-.88.36.19Zm-21.37-.2-.47-.88.36-.19.45.89Zm20.15-.43L52,13.55l.42-.91.37.17ZM33.4,13.54,33,12.63l.38-.17.39.92Zm17.69-.38L50.72,13l.36-.93.38.14ZM34.67,13l-.35-.94.38-.14.34.94Zm15.13-.32-.37-.12.31-1,.38.12ZM36,12.56l-.29-1,.39-.11.28.95ZM48.5,12.3l-.39-.1.25-1,.39.1Zm-11.22-.11-.23-1,.39-.1.22,1ZM47.16,12l-.38-.07.18-1,.4.07Zm-8.54-.08-.18-1,.4-.07.16,1Zm7.2-.15-.39-.05.12-1,.41,0ZM40,11.7l-.12-1,.41,0,.1,1Zm4.49-.1-.4,0,.07-1,.41,0Zm-3.13,0,0-1,.4,0,0,1Zm1.76,0H42.7v-1h.41Z"/><text class="cls-5" transform="translate(76.78 19.78)">ՍԵՂՄԵՔ ԿՐ<tspan class="cls-6" x="58.69" y="0">Ա</tspan><tspan x="65.35" y="0">ԿԵԼՈՒ</tspan><tspan x="0" y="11.55">ԿՈՃ</tspan><tspan class="cls-6" x="20.4" y="11.55">Ա</tspan><tspan x="27.06" y="11.55">ԿԸ</tspan></text><polygon class="cls-7" points="53.27 40.98 45.53 45.44 42.25 49.23 42.25 51.34 55.32 43.8 55.32 41.69 53.27 40.98"/><polygon class="cls-8" points="42.25 51.34 29.88 44.2 29.88 42.09 42.25 49.23 42.25 51.34"/><polygon class="cls-9" points="42.25 49.23 29.88 42.09 33.16 38.3 45.53 45.44 42.25 49.23"/><polygon class="cls-10" points="36.26 44.91 30.82 41.76 32.26 40.09 37.71 43.24 36.26 44.91"/><polygon class="cls-9" points="53.27 40.98 40.9 33.83 42.95 34.55 55.32 41.69 53.27 40.98"/><polygon class="cls-11" points="45.53 45.44 33.16 38.3 40.9 33.83 53.27 40.98 45.53 45.44"/><path class="cls-7" d="M35.94,38.41a.66.66,0,0,1,0-1.24,2.35,2.35,0,0,1,2.16,0,.66.66,0,0,1,0,1.24A2.41,2.41,0,0,1,35.94,38.41Z"/><path class="cls-12" d="M38.37,36.8h-.56a2.15,2.15,0,0,0-1.56,0h-.58v1h0a.7.7,0,0,0,.39.54,2.1,2.1,0,0,0,1.92,0,.67.67,0,0,0,.39-.54h0Z"/><path class="cls-13" d="M36.06,37.35a.58.58,0,0,1,0-1.1,2.1,2.1,0,0,1,1.92,0,.58.58,0,0,1,0,1.1A2.1,2.1,0,0,1,36.06,37.35Z"/><path class="cls-7" d="M39,36.67a.66.66,0,0,1,0-1.25,2.41,2.41,0,0,1,2.16,0,.66.66,0,0,1,0,1.25A2.41,2.41,0,0,1,39,36.67Z"/><path class="cls-14" d="M41.39,35.05h-.56a2.26,2.26,0,0,0-1.56,0h-.58v1h0a.71.71,0,0,0,.39.54,2.14,2.14,0,0,0,1.91,0,.7.7,0,0,0,.4-.54h0Z"/><path class="cls-15" d="M39.08,35.61a.59.59,0,0,1,0-1.11,2.14,2.14,0,0,1,1.91,0,.59.59,0,0,1,0,1.11A2.14,2.14,0,0,1,39.08,35.61Z"/><path class="cls-7" d="M48.87,39.76l-1.53-.52a6,6,0,0,0-4.2,0l-1.56.5v.72h0a1.84,1.84,0,0,0,1.07,1.45,5.68,5.68,0,0,0,5.14,0,1.82,1.82,0,0,0,1.06-1.45h0Z"/><path class="cls-11" d="M42.65,41.23c-1.42-.82-1.42-2.15,0-3a5.62,5.62,0,0,1,5.14,0c1.43.82,1.43,2.15,0,3A5.68,5.68,0,0,1,42.65,41.23Z"/><path class="cls-7" d="M48.41,39l-1.34-.45a5.18,5.18,0,0,0-3.66,0L42,39v.62h0A1.61,1.61,0,0,0,43,40.89a5,5,0,0,0,4.5,0,1.55,1.55,0,0,0,.92-1.27h0Z"/><path class="cls-11" d="M43,40.31c-1.24-.71-1.24-1.87,0-2.59a5,5,0,0,1,4.5,0,1.37,1.37,0,0,1,0,2.59A5,5,0,0,1,43,40.31Z"/><path class="cls-7" d="M47.92,38.37,46.79,38a4.38,4.38,0,0,0-3.11,0l-1.16.37v.53h0A1.4,1.4,0,0,0,43.31,40a4.28,4.28,0,0,0,3.82,0,1.34,1.34,0,0,0,.78-1.08h0Z"/><path class="cls-11" d="M43.31,39.46a1.16,1.16,0,0,1,0-2.2,4.22,4.22,0,0,1,3.82,0,1.16,1.16,0,0,1,0,2.2A4.22,4.22,0,0,1,43.31,39.46Z"/><path class="cls-7" d="M47.46,37.88l-.94-.32a3.61,3.61,0,0,0-2.57,0l-1,.31v.43h0a1.11,1.11,0,0,0,.65.89,3.52,3.52,0,0,0,3.16,0,1.11,1.11,0,0,0,.65-.89h0Z"/><path class="cls-11" d="M43.64,38.78a1,1,0,0,1,0-1.82,3.45,3.45,0,0,1,3.16,0,1,1,0,0,1,0,1.82A3.52,3.52,0,0,1,43.64,38.78Z"/><path class="cls-13" d="M49.78,18.63a5,5,0,0,0-1.22,5.85A8.06,8.06,0,0,0,50,23,8.2,8.2,0,0,1,49.78,18.63Z"/><path class="cls-8" d="M45.56,29.34c-.64-.3-.51-2,.2-3-.63-.7-.13-2.36.42-3a5.88,5.88,0,0,1-.52-3.21l1,.65,3.5-4-2.5-1.44h0a.42.42,0,0,0-.48.05c-3.35,2.13-8.07,7.44-6.95,8.43.56.82-1.22,4.72.9,14.36,0,0,0,0,0,0h0l2.52,1.45.82-1.78L44,37a7.83,7.83,0,0,0,2.57-2.09C47.44,32.29,44.16,33.89,45.56,29.34Z"/><path class="cls-7" d="M49.08,36.36c-.31.93-5.34,3.9-5.48,3.29-2.12-9.65-.35-13.55-.9-14.36-1.12-1,3.6-6.31,6.95-8.44.82-.52,1,1.06.42,1.51a5.12,5.12,0,0,0-1.39,6.41c-.55.65-1,2.31-.42,3-.71,1-.84,2.71-.2,3C46.66,35.33,49.94,33.74,49.08,36.36Z"/><path class="cls-16" d="M47.38,17.33l-1.83-1.06a19.3,19.3,0,0,0-4.26,4.4l1.83,1.06A27,27,0,0,1,47.38,17.33Z"/><path class="cls-12" d="M47.52,17.87l-.14-.54a19.08,19.08,0,0,0-4.26,4.4l.18.51A27,27,0,0,1,47.52,17.87Z"/><polygon class="cls-13" points="43.3 22.24 43.12 21.73 41.29 20.67 41.47 21.19 43.3 22.24"/><path class="cls-8" d="M46.88,27.46v4.33a3.88,3.88,0,0,1-1.56,3.09.92.92,0,0,1-1.12,0A1,1,0,0,0,45,34.7a3.85,3.85,0,0,0,1.56-3.08V27.29A1.62,1.62,0,0,0,46.15,26C46.59,26.17,46.88,26.69,46.88,27.46Z"/><path d="M46.58,27.29v4.33A3.85,3.85,0,0,1,45,34.7a1,1,0,0,1-.82.15,1.66,1.66,0,0,1-.43-1.26V29.26a3.87,3.87,0,0,1,1.55-3.08,1,1,0,0,1,.83-.14A1.62,1.62,0,0,1,46.58,27.29Z"/></g></g></g></svg>