<svg xmlns="http://www.w3.org/2000/svg" viewBox="0 0 226.06 75.04"><defs><style>.cls-1{isolation:isolate;}.cls-2{opacity:0.1;mix-blend-mode:screen;}.cls-3{fill:#0068e8;}.cls-4{fill:#4dffff;}.cls-5{font-size:12.02px;fill:#0be9f0;font-family:GHEAGrapalat-Bold, GHEA Grapalat;font-weight:700;}.cls-6{letter-spacing:-0.06em;}.cls-7{fill:#294c22;}.cls-8{fill:#3a682e;}.cls-9{fill:#54c638;}.cls-10{fill:#6eed4a;}.cls-11{opacity:0.6;}</style></defs><title>Asset 2</title><g class="cls-1"><g id="Layer_2" data-name="Layer 2"><g id="BACKGROUND_02" data-name="BACKGROUND 02"><g class="cls-2"><polygon class="cls-3" points="11.24 63.57 8 60.33 8 10.7 11.24 7.46 168.82 7.46 186.47 25.1 217.9 25.1 222.56 29.76 222.56 60.33 219.31 63.57 11.24 63.57"/><path class="cls-4" d="M219.42,63.82H11.14L7.75,60.43V10.6l3.39-3.39H168.93l17.64,17.64H218l4.81,4.81V60.43Zm-208.07-.5H219.21l3.1-3.1V29.87l-4.52-4.52H186.36L168.72,7.71H11.35L8.25,10.8V60.22Z"/></g><path class="cls-4" d="M43.06,63.53a28,28,0,1,1,19.81-8.2A27.84,27.84,0,0,1,43.06,63.53Zm0-55A26.82,26.82,0,0,0,24,16.41h0A27,27,0,1,0,43.06,8.49Z"/><path class="cls-3" d="M13.94,30.42,11,29.9A32.56,32.56,0,0,1,16.29,17l2.46,1.71a30.52,30.52,0,0,0-3,5.53A29.84,29.84,0,0,0,13.94,30.42Z"/><path class="cls-4" d="M16,52.77l-.38-.61,1.71-1,.36.58Zm-1.39-2.41-.33-.64,1.79-.89c.1.21.21.41.31.61Zm-1.19-2.51-.27-.68,1.87-.72c.08.21.16.41.25.62Zm-1-2.62-.21-.69L14.21,44c.06.22.13.44.2.65Zm-.73-2.69-.15-.71,2-.39c.05.22.09.44.14.66Z"/><path class="cls-4" d="M15.47,32.86l-2-.19a29.74,29.74,0,0,1,8.57-18.16l1.41,1.41A27.76,27.76,0,0,0,15.47,32.86Z"/><path class="cls-4" d="M43.06,66.15a30.56,30.56,0,0,1-21.68-9l2.13-2.12a27.67,27.67,0,0,0,39.09,0l2.13,2.12A30.56,30.56,0,0,1,43.06,66.15Z"/><path class="cls-3" d="M43.06,60.51A25,25,0,0,1,25.37,17.83h0A25,25,0,1,1,43.06,60.51Zm-17-42a24,24,0,1,0,34,0,23.81,23.81,0,0,0-33.95,0Z"/><path class="cls-3" d="M60.33,52.79l-2.12-2.12a21.47,21.47,0,0,0,0-30.31l2.12-2.12A24.47,24.47,0,0,1,60.33,52.79Z"/><rect class="cls-4" x="42.56" y="4.46" width="1" height="3.53"/><rect class="cls-4" x="42.56" y="63.04" width="1" height="3.53"/><rect class="cls-4" x="10" y="35.01" width="13.53" height="1"/><rect class="cls-4" x="62.58" y="35.01" width="13.53" height="1"/><rect class="cls-4" x="75.61" y="32.2" width="1" height="6.62"/><rect class="cls-3" x="165.98" y="60.16" width="51.85" height="3"/><path class="cls-3" d="M196,26h-1l3-7.7h1Zm6.49-7.7h-1l-3,7.7h1Zm3.48,0h-1l-3,7.7h1Zm3.48,0h-1l-3,7.7h1Z"/><rect class="cls-3" x="68.58" width="54.91" height="8.92"/><path class="cls-4" d="M220.76,67.07H9.79L4.5,61.78V9.25L9.79,4H170.27L187.92,21.6h31.43l6.71,6.71V61.78Zm-210.55-1H220.35l4.71-4.71V28.73l-6.13-6.13H187.5L169.86,5H10.21L5.5,9.67V61.36Z"/><path class="cls-4" d="M2,34.46H0v-.7H2Zm0-2.7H0v-.7H2Zm0-2.7H0v-.7H2Zm0-2.7H0v-.7H2Zm0-2.7H0V23H2ZM2,21H0v-.7H2Zm0-2.7H0v-.7H2Zm0-2.7H0v-.7H2Zm0-2.7H0v-.7H2Zm0-2.7H0v-.7H2Z"/><path class="cls-3" d="M70.3,24.05a29.36,29.36,0,0,0-3-5.51A29,29,0,0,0,63,13.69l2-2.22a32.56,32.56,0,0,1,8.06,11.41Z"/><path class="cls-3" d="M16.77,75H15.53V69.22h1.24Zm2.39-5.82H17.93V75h1.23Zm2.4,0H20.33V75h1.23Zm2.39,0H22.72V75H24Zm2.4,0H25.12V75h1.23Zm2.4,0H27.51V75h1.24Zm2.39,0H29.91V75h1.23Zm2.4,0H32.3V75h1.24Zm2.39,0H34.7V75h1.23Zm2.4,0H37.1V75h1.23Zm2.4,0H39.49V75h1.24Zm2.39,0H41.89V75h1.23Zm2.4,0H44.28V75h1.24Zm2.39,0H46.68V75h1.23Zm2.4,0H49.08V75h1.23Zm2.4,0H51.47V75h1.24Zm2.39,0H53.87V75H55.1Zm2.4,0H56.26V75H57.5Zm2.39,0H58.66V75h1.23Zm2.4,0H61.06V75h1.23Zm2.39,0H63.45V75h1.23Zm2.4,0H65.85V75h1.23Zm2.4,0H68.24V75h1.24Zm2.39,0H70.64V75h1.23Zm2.4,0H73V75h1.23Zm2.39,0H75.43V75h1.23Zm2.4,0H77.83V75h1.23Zm2.4,0H80.22V75h1.24Zm2.39,0H82.62V75h1.23Zm2.4,0H85V75h1.24Zm2.39,0H87.41V75h1.23Zm2.4,0H89.81V75H91Zm2.4,0H92.2V75h1.24Zm2.39,0H94.6V75h1.23Zm2.4,0H97V75h1.24Zm2.39,0H99.39V75h1.23Zm2.4,0h-1.23V75H103Zm2.4,0h-1.24V75h1.24Zm2.39,0h-1.23V75h1.23Zm2.4,0H109V75h1.24Zm2.39,0h-1.23V75h1.23Z"/><rect class="cls-3" x="115.28" y="69.22" width="62.45" height="1"/><path class="cls-4" d="M42.55,58.94h-.4l0-1h.4Zm1,0,0-1,.39,0,.05,1Zm-2.44-.08-.41,0,.1-1,.39,0Zm3.87,0-.08-1,.38,0,.11,1Zm-5.29-.16-.41-.06.17-1c.12,0,.25,0,.38.06Zm6.71,0-.14-1,.38-.06.16,1Zm-8.12-.24-.4-.09.22-1,.38.08Zm9.53,0-.21-1,.39-.08.22,1Zm-10.92-.32L36.52,58l.28-1,.37.1Zm12.31,0-.27-1,.34-.1.31.95Zm-13.68-.41-.38-.13.33-.94.37.12Zm15,0-.32-1,.37-.13.33.94Zm-16.38-.5-.37-.16.39-.91.36.15Zm17.72,0-.38-.93.36-.15.39.92Zm-19-.58-.37-.18.45-.89.35.17Zm20.32,0-.43-.9.35-.18.45.9ZM31.63,56l-.36-.2.51-.86.34.19Zm22.86,0L54,55.1l.34-.2.51.87ZM30.4,55.24,30.06,55l.56-.83.32.22Zm25.31,0-.54-.84.33-.21.55.83Zm-26.49-.8-.32-.25.6-.79.32.23Zm27.67,0-.59-.8.31-.23.61.79ZM28.1,53.55l-.31-.27.65-.76.3.26Zm29.92,0-.64-.77.3-.26.65.76ZM27,52.6l-.29-.28.7-.72.28.27Zm32.07,0-.69-.73.28-.27.7.72ZM26,51.59l-.27-.3.74-.67.26.29Zm34.09,0-.73-.69.26-.28.75.67ZM61,50.53l-.76-.65.25-.3.77.63Zm-36,0-.25-.31.77-.63.25.3Zm-.88-1.12-.24-.33.82-.57.23.31Zm37.75,0-.81-.59.23-.32.82.58ZM23.37,48.23l-.22-.34.85-.53.21.33Zm39.37,0-.84-.54.21-.33.85.53ZM22.63,47l-.19-.36.88-.47.18.34Zm40.85,0-.87-.49.19-.34.88.47ZM22,45.74l-.17-.36.9-.42.17.35Zm42.17,0-.9-.43.17-.36.91.42ZM21.39,44.44l-.16-.38.94-.36.14.36Zm43.34,0-.93-.38.15-.36.93.36ZM20.88,43.1l-.12-.38.95-.31.12.37Zm44.35,0-1-.32.13-.37,1,.3ZM20.46,41.74l-.1-.39,1-.25.1.37Zm45.19,0-1-.26.1-.38,1,.25ZM20.13,40.35l-.08-.4,1-.19.08.38Zm45.85,0-1-.21.07-.38,1,.18ZM19.88,39l-.06-.41,1-.13.06.39Zm46.35,0-1-.15,0-.38,1,.12Zm-46.52-1.4,0-.41,1-.07,0,.39Zm46.69,0-1-.09,0-.39,1,.07ZM19.63,36.1v-.41h1v.4Zm46.85,0-1,0v-.39h1ZM20.64,34.71l-1,0,0-.4,1,0Zm44.83,0,0-.39,1,0,0,.4ZM20.73,33.34l-1-.09,0-.41,1,.11Zm44.65,0,0-.39,1-.12,0,.41ZM20.9,32l-1-.16.06-.4,1,.17Zm44.3,0-.06-.39,1-.17.07.4Zm-44-1.33-1-.21.09-.4,1,.23Zm43.79,0-.09-.38,1-.24.09.4ZM21.49,29.32l-1-.28.12-.39,1,.29Zm43.12,0-.11-.37,1-.3.11.4ZM21.91,28,21,27.68l.14-.38.93.35Zm42.28,0-.13-.37.94-.35.14.39ZM22.41,26.74l-.92-.39.16-.38.91.41Zm41.29,0-.16-.36.92-.41.16.38ZM23,25.5l-.89-.45.18-.36.89.46Zm40.14,0L63,25.14l.88-.46L64,25Zm-39.49-1.2-.87-.5.21-.35.86.51Zm38.85,0-.2-.33.85-.52.21.35ZM24.35,23.13l-.83-.55.23-.34.82.56Zm37.41,0-.22-.32.82-.57.23.34ZM25.14,22l-.8-.6.25-.33.79.62ZM61,22l-.24-.31.79-.62.24.32ZM60.11,21l-.26-.3L60.6,20l.27.3ZM26,20.94l-.76-.65.27-.3.75.66Zm33.19-1-.28-.28.71-.7.29.29Zm-32.27,0-.72-.69.29-.29.4.3.31.4ZM58.21,19l-.29-.26.66-.75.3.27ZM28,18.93l-.67-.74.3-.27.66.75Zm29.23-.85-.31-.24.62-.79.31.26ZM29,18l-.63-.78.32-.25.61.79Zm27.09-.79L55.77,17l.56-.83.34.24Zm-26,0-.57-.82.33-.23.57.82ZM55,16.49l-.33-.2.51-.86.35.21Zm-23.74,0-.52-.85L31,15.4l.52.86Zm22.56-.66-.35-.18.46-.89.36.19Zm-21.38,0-.47-.88.36-.19.46.89Zm20.15-.59L52.19,15l.41-.91.37.17Zm-18.93,0-.41-.91.37-.16L34,15Zm17.68-.52-.37-.14.35-.93.38.14Zm-16.42,0-.36-.93.38-.14.35.93ZM50,14.18l-.38-.12.3-1,.39.12Zm-13.84,0-.31-1,.39-.12.29,1Zm12.53-.37-.38-.09.23-1,.4.1Zm-11.22,0-.24-1,.39-.1.23,1Zm9.88-.29L47,13.43l.17-1,.4.08Zm-8.54,0-.19-1,.4-.08.17,1ZM46,13.28l-.38,0,.11-1,.4,0Zm-5.84,0-.13-1,.4,0,.11,1Zm4.48-.13-.39,0,0-1,.41,0Zm-3.12,0-.07-1,.41,0,0,1Zm1.75-.05h-.38l0-1h.42Z"/><text class="cls-5" transform="translate(73.84 22.01) scale(0.91 1)">ԿՈՈՐԴ<tspan class="cls-6" x="42.09" y="0">Ի</tspan><tspan x="49.57" y="0">ՆԱՏՆԵՐԸ</tspan></text><path class="cls-7" d="M42.51,19A16.33,16.33,0,1,0,58.84,35.28,16.33,16.33,0,0,0,42.51,19Z"/><path class="cls-8" d="M58.84,35.36v-.13h-1V32.3h.69l0-.13h-.66V29.75l-.14-.36v2.78H54.81V29.24h2.87a.69.69,0,0,0,0-.13H54.81V26.18h1.26L56,26.05H54.81v-1.5l-.13-.15v1.65H51.75V23.12h1.66L53.26,23H51.75V21.82l-.13-.09V23H48.69V20.16l-.13-.05V23H45.63V20.06h2.8l-.35-.13H45.63v-.68l-.13,0v.71H42.57V19h-.13v1H39.51v-.7l-.13,0v.68H36.94l-.35.13h2.79V23H36.45V20.11l-.13.06V23H33.39V21.73l-.13.09V23h-1.5l-.15.13h1.65v2.93H30.33V24.4l-.13.15v1.5H29l-.09.13H30.2v2.93H27.39l-.06.13H30.2v2.93H27.27V29.41c-.05.12-.09.23-.13.35v2.41h-.66l0,.13h.69v2.93h-1v.13h1v2.93h-.68a.51.51,0,0,0,0,.13h.66V40.8c0,.12.08.23.13.35V38.42H30.2v2.93H27.35a.5.5,0,0,0,0,.13h2.8v2.93H29l.09.14H30.2V46a.86.86,0,0,0,.13.14v-1.6h2.93v2.92H31.65l.15.14h1.46v1.13l.13.09V47.61h2.93v2.78l.13.06V47.61h2.93v2.92H36.67l.36.14h2.35v.64l.13,0v-.66h2.93v.94h.13v-.94H45.5v.67l.13,0v-.64H48l.35-.14H45.63V47.61h2.93v2.84l.13-.05V47.61h2.93v1.22l.13-.09V47.61h1.47l.15-.14H51.75V44.55h2.93v1.61l.13-.15V44.55H56l.09-.14H54.81V41.48h2.81s0-.08.05-.13H54.81V38.42h2.93v2.75l.14-.36V38.42h.65l0-.13h-.68V35.36ZM30.2,38.29H27.27V35.36H30.2Zm0-3.06H27.27V32.3H30.2Zm3.06,9.18H30.33V41.48h2.93Zm0-3.06H30.33V38.42h2.93Zm0-3.06H30.33V35.36h2.93Zm0-3.06H30.33V32.3h2.93Zm0-3.06H30.33V29.24h2.93Zm0-3.06H30.33V26.18h2.93Zm3.06,18.36H33.39V44.55h2.93Zm0-3.06H33.39V41.48h2.93Zm0-3.06H33.39V38.42h2.93Zm0-3.06H33.39V35.36h2.93Zm0-3.06H33.39V32.3h2.93Zm0-3.06H33.39V29.24h2.93Zm0-3.06H33.39V26.18h2.93Zm0-3.06H33.39V23.12h2.93Zm3.06,21.42H36.45V44.55h2.93Zm0-3.06H36.45V41.48h2.93Zm0-3.06H36.45V38.42h2.93Zm0-3.06H36.45V35.36h2.93Zm0-3.06H36.45V32.3h2.93Zm0-3.06H36.45V29.24h2.93Zm0-3.06H36.45V26.18h2.93Zm0-3.06H36.45V23.12h2.93Zm3.06,24.48H39.51V47.61h2.93Zm0-3.06H39.51V44.55h2.93Zm0-3.06H39.51V41.48h2.93Zm0-3.06H39.51V38.42h2.93Zm0-3.06H39.51V35.36h2.93Zm0-3.06H39.51V32.3h2.93Zm0-3.06H39.51V29.24h2.93Zm0-3.06H39.51V26.18h2.93Zm0-3.06H39.51V23.12h2.93Zm0-3.06H39.51V20.06h2.93ZM45.5,50.53H42.57V47.61H45.5Zm0-3.06H42.57V44.55H45.5Zm0-3.06H42.57V41.48H45.5Zm0-3.06H42.57V38.42H45.5Zm0-3.06H42.57V35.36H45.5Zm0-3.06H42.57V32.3H45.5Zm0-3.06H42.57V29.24H45.5Zm0-3.06H42.57V26.18H45.5Zm0-3.06H42.57V23.12H45.5Zm0-3.06H42.57V20.06H45.5Zm3.06,24.48H45.63V44.55h2.93Zm0-3.06H45.63V41.48h2.93Zm0-3.06H45.63V38.42h2.93Zm0-3.06H45.63V35.36h2.93Zm0-3.06H45.63V32.3h2.93Zm0-3.06H45.63V29.24h2.93Zm0-3.06H45.63V26.18h2.93Zm0-3.06H45.63V23.12h2.93Zm3.06,21.42H48.69V44.55h2.93Zm0-3.06H48.69V41.48h2.93Zm0-3.06H48.69V38.42h2.93Zm0-3.06H48.69V35.36h2.93Zm0-3.06H48.69V32.3h2.93Zm0-3.06H48.69V29.24h2.93Zm0-3.06H48.69V26.18h2.93Zm0-3.06H48.69V23.12h2.93Zm3.06,18.36H51.75V41.48h2.93Zm0-3.06H51.75V38.42h2.93Zm0-3.06H51.75V35.36h2.93Zm0-3.06H51.75V32.3h2.93Zm0-3.06H51.75V29.24h2.93Zm0-3.06H51.75V26.18h2.93Zm3.06,9.18H54.81V35.36h2.93Zm0-3.06H54.81V32.3h2.93Z"/><path class="cls-7" d="M41.16,35.38a1.35,1.35,0,0,0,1.25,1.25V35.38Z"/><path class="cls-7" d="M41.16,35.18h1.25V33.93A1.35,1.35,0,0,0,41.16,35.18Z"/><path class="cls-7" d="M42.61,35.38v1.25a1.35,1.35,0,0,0,1.25-1.25Z"/><path class="cls-7" d="M42.61,33.93v1.25h1.25A1.35,1.35,0,0,0,42.61,33.93Z"/><path class="cls-9" d="M58.84,35.18H56A13.54,13.54,0,0,0,42.61,21.75V19h-.2v2.8A13.54,13.54,0,0,0,29,35.18h-2.8v.2H29A13.54,13.54,0,0,0,42.41,48.81v2.8h.2v-2.8A13.54,13.54,0,0,0,56,35.38h2.8v-.2ZM42.41,48.61A13.35,13.35,0,0,1,29.17,35.38h3.1A10.24,10.24,0,0,0,42.41,45.52Zm0-3.29a10,10,0,0,1-9.94-9.94h3a7.08,7.08,0,0,0,7,7Zm0-3.16a6.88,6.88,0,0,1-6.78-6.78h2.66a4.23,4.23,0,0,0,4.12,4.12v2.66Zm0-2.86a4,4,0,0,1-3.92-3.92H41a1.55,1.55,0,0,0,1.45,1.45Zm0-2.67a1.35,1.35,0,0,1-1.25-1.25h1.25Zm0-1.45H41.16a1.35,1.35,0,0,1,1.25-1.25Zm0-1.45A1.55,1.55,0,0,0,41,35.18H38.49a4,4,0,0,1,3.92-3.92Zm0-2.67a4.23,4.23,0,0,0-4.12,4.12H35.63a6.88,6.88,0,0,1,6.78-6.78v2.66Zm0-2.86a7.08,7.08,0,0,0-7,7h-3a10,10,0,0,1,9.94-9.94v3Zm0-3.16A10.24,10.24,0,0,0,32.27,35.18h-3.1A13.35,13.35,0,0,1,42.41,22Zm.2.2a10,10,0,0,1,9.94,9.94h-3a7.08,7.08,0,0,0-7-7v-3Zm0,3.16a6.88,6.88,0,0,1,6.78,6.78H46.72a4.23,4.23,0,0,0-4.11-4.12V28.4Zm0,2.86a4,4,0,0,1,3.92,3.92H44.06a1.56,1.56,0,0,0-1.45-1.45V31.26Zm0,2.67a1.35,1.35,0,0,1,1.25,1.25H42.61Zm0,1.45h1.25a1.35,1.35,0,0,1-1.25,1.25V35.38Zm0,1.45a1.56,1.56,0,0,0,1.45-1.45h2.47a4,4,0,0,1-3.92,3.92V36.83Zm0,2.67a4.23,4.23,0,0,0,4.11-4.12h2.67a6.88,6.88,0,0,1-6.78,6.78Zm0,2.86a7.08,7.08,0,0,0,7-7h3a10,10,0,0,1-9.94,9.94v-3Zm0,6.25V45.52A10.24,10.24,0,0,0,52.75,35.38h3.09A13.34,13.34,0,0,1,42.61,48.61ZM52.75,35.18A10.25,10.25,0,0,0,42.61,25V22A13.34,13.34,0,0,1,55.84,35.18Z"/><path class="cls-10" d="M47.73,19.81,42.47,35.35,48.52,20.1Z"/><g class="cls-11"><path class="cls-10" d="M42.47,18.91V35.35l5.26-15.54A16.09,16.09,0,0,0,42.47,18.91Z"/></g><path class="cls-10" d="M33,37.68a.86.86,0,1,1,0,1.71.85.85,0,0,1-.85-.85A.86.86,0,0,1,33,37.68Z"/><path class="cls-10" d="M50.8,40.32a.86.86,0,1,1-.86.85A.86.86,0,0,1,50.8,40.32Z"/></g></g></g></svg>